<svg xmlns="http://www.w3.org/2000/svg" viewBox="0 0 32 32" xml:space="preserve" width="32" height="32"><metadata><rdf:RDF xmlns:rdf="http://www.w3.org/1999/02/22-rdf-syntax-ns#" xmlns:dc="http://purl.org/dc/elements/1.1/"><rdf:Description><dc:creator>RealFaviconGenerator</dc:creator><dc:source>https://realfavicongenerator.net</dc:source></rdf:Description></rdf:RDF></metadata><path style="fill:#fdb51c" d="M6.649 25.458h.479V32h-.479z"></path><path style="fill:#f89722" d="M7.128 25.458h.479V32h-.479z"></path><path style="fill:#fdb51c" d="M7.128 25.6s.001-4.132-4.435-5.795c0 0-.201 5.795 4.435 5.795m0-5.493s.001-4.132-4.435-5.795c0 0-.201 5.795 4.435 5.795m0-5.493s.001-4.132-4.435-5.796c0 0-.201 5.796 4.435 5.796m0-3.679V3.023s-4.032 4.233 0 7.912"></path><path style="fill:#f89722" d="M7.128 25.6s-.001-4.132 4.435-5.795c0 0 .202 5.795-4.435 5.795m0-5.493s-.001-4.132 4.435-5.795c0 0 .202 5.795-4.435 5.795m0-5.493s-.001-4.132 4.435-5.795c0 0 .202 5.796-4.435 5.796m0-3.68V3.023s4.031 4.233 0 7.912"></path><path style="fill:#fdb51c" d="M15.521 22.435H16v6.541h-.479z"></path><path style="fill:#f89722" d="M16 22.435h.479v6.541H16z"></path><path style="fill:#fdb51c" d="M16 22.576s.001-4.132-4.435-5.795c0 0-.202 5.795 4.435 5.795m0-5.493s.001-4.132-4.435-5.795c0 0-.202 5.795 4.435 5.795m0-5.492s.001-4.132-4.435-5.796c0 0-.202 5.796 4.435 5.796m0-3.679V0s-4.032 4.233 0 7.912"></path><path style="fill:#f89722" d="M16 22.576s-.001-4.132 4.435-5.795c0 0 .201 5.795-4.435 5.795m0-5.493s-.001-4.132 4.435-5.795c0 0 .201 5.795-4.435 5.795m0-5.492s-.001-4.132 4.435-5.796c0 0 .201 5.796-4.435 5.796m0-3.679V0s4.031 4.233 0 7.912"></path><path style="fill:#fdb51c" d="M24.393 25.458h.479V32h-.479z"></path><path style="fill:#f89722" d="M24.872 25.458h.479V32h-.479z"></path><path style="fill:#fdb51c" d="M24.872 25.6s.001-4.132-4.435-5.795c0 0-.201 5.795 4.435 5.795m0-5.493s.001-4.132-4.435-5.795c0 0-.201 5.795 4.435 5.795m0-5.493s.001-4.132-4.435-5.796c0 0-.201 5.796 4.435 5.796m0-3.679V3.023s-4.032 4.233 0 7.912"></path><path style="fill:#f89722" d="M24.872 25.6s-.001-4.132 4.435-5.795c0 0 .201 5.795-4.435 5.795m0-5.493s-.001-4.132 4.435-5.795c0 0 .201 5.795-4.435 5.795m0-5.493s-.001-4.132 4.435-5.796c0 0 .201 5.796-4.435 5.796m0-3.679V3.023s4.032 4.233 0 7.912"></path><style>@media (prefers-color-scheme: light) { :root { filter: contrast(1) brightness(0.6); } }
@media (prefers-color-scheme: dark) { :root { filter: contrast(0.9090909090909091) brightness(1.5); } }
</style></svg>